#!OML:ASF I:\golf\golf\golf 2\Subject 1\2002-09-07\Subject1.ASF
:FULLY-SPECIFIED
:DEGREES
114
root 2.16003 17.9558 -9.82538 8.39766 -7.0516 -2.11574
lowerback -3.50281 1.78071 -6.71873
upperback 2.21775 2.65499 2.20041
thorax 3.8697 1.10744 6.25046
lowerneck -14.9083 1.02341 1.46329
upperneck 40.8269 3.78298 -6.31384
head 17.8299 0.877434 -2.48222
rclavicle 2.56432e-014 1.10822e-014
rhumerus -26.975 2.58134 -84.7895
rradius 30.1412
rwrist -7.25186
rhand -16.7897 10.8673
rfingers 7.12502
rthumb 9.43825 -18.9014
lclavicle 2.56432e-014 1.10822e-014
lhumerus -30.2684 2.63317 82.5103
lradius 34.7364
lwrist -0.613849
lhand -11.9203 33.7423
lfingers 7.12502
lthumb 14.1338 63.2416
rfemur -26.9127 -5.38011 20.8765
rtibia 47.0391
rfoot -14.5425 -8.77421
rtoes 4.35185
lfemur -14.2195 5.94028 -22.2647
ltibia 27.4054
lfoot -17.4119 2.70253
ltoes 2.83751
115
root 2.16449 17.9577 -9.80777 8.43568 -6.89793 -2.20791
lowerback -3.22836 1.74138 -6.59732
upperback 2.11206 2.57583 2.19882
thorax 3.62012 1.08494 6.15988
lowerneck -14.8529 1.09331 1.51528
upperneck 40.8683 3.86994 -6.29741
head 17.846 0.923396 -2.46939
rclavicle -4.47266e-016 -5.96354e-016
rhumerus -27.1513 2.71715 -84.8767
rradius 30.3621
rwrist -7.32887
rhand -16.6753 10.8915
rfingers 7.12502
rthumb 9.54864 -18.8721
lclavicle -4.47266e-016 -5.96354e-016
lhumerus -30.4462 2.58653 82.4159
lradius 34.6586
lwrist -0.910066
lhand -10.7388 33.2163
lfingers 7.12502
lthumb 15.2721 62.6325
rfemur -27.363 -5.8584 21.0707
rtibia 47.221
rfoot -14.4393 -8.82877
rtoes 4.15667
lfemur -14.1363 5.92141 -22.1593
ltibia 27.2812
lfoot -17.4632 2.72673
ltoes 0.203425
116
root 2.16705 17.963 -9.78915 8.44694 -6.8109 -2.33575
lowerback -3.05009 1.70925 -6.45237
upperback 2.15125 2.51458 2.2132
thorax 3.57414 1.05869 6.08289
lowerneck -14.9344 1.1073 1.48175
upperneck 40.8828 3.92267 -6.33939
head 17.8818 0.931658 -2.47443
rclavicle -4.4329e-014 1.54307e-014
rhumerus -27.0475 2.87146 -84.9527
rradius 30.5094
rwrist -7.42125
rhand -16.7362 10.9038
rfingers 7.12502
rthumb 9.48984 -18.8625
lclavicle -4.4329e-014 1.54307e-014
lhumerus -30.3936 2.69659 82.3282
lradius 34.5964
lwrist -1.17919
lhand -12.0409 32.5088
lfingers 7.12502
lthumb 14.0176 62.0161
rfemur -27.7802 -6.28901 21.299
rtibia 47.3281
rfoot -14.2906 -8.82958
rtoes 4.24099
lfemur -13.9929 5.92001 -22.0089
ltibia 27.1253
lfoot -17.4295 2.71972
ltoes -1.13746
117
root 2.17067 17.9658 -9.76921 8.44366 -6.79701 -2.28622
lowerback -2.96861 1.67676 -6.54057
upperback 2.25644 2.47143 2.23672
thorax 3.64064 1.02873 6.15555
lowerneck -15.0981 1.15961 1.35546
upperneck 40.8713 4.04447 -6.32728
head 17.9254 0.95966 -2.42281
rclavicle 4.25275e-014 -5.01931e-015
rhumerus -26.8273 3.22614 -84.9734
rradius 30.6214
rwrist -7.64482
rhand -16.7844 10.9365
rfingers 7.12502
rthumb 9.44338 -18.832
lclavicle 4.25275e-014 -5.01931e-015
lhumerus -30.2982 2.87065 82.3462
lradius 34.5806
lwrist -1.42167
lhand -13.1065 32.6873
lfingers 7.12502
lthumb 12.9906 62.2629
rfemur -28.2044 -6.51144 21.2936
rtibia 47.3828
rfoot -14.2074 -8.87872
rtoes 4.93942
lfemur -13.8555 6.04025 -22.0767
ltibia 26.975
lfoot -17.45 2.58301
ltoes -1.0445
118
root 2.17481 17.9652 -9.74712 8.47426 -6.79457 -2.20167
lowerback -3.00931 1.65385 -6.69856
upperback 2.34704 2.45145 2.2797
thorax 3.75466 1.00644 6.29459
lowerneck -15.1495 1.18688 1.2353
upperneck 40.8209 4.14145 -6.36131
head 17.9161 0.974947 -2.39615
rclavicle -4.63417e-015 -1.66482e-014
rhumerus -26.6408 3.55511 -84.9323
rradius 30.6908
rwrist -7.84805
rhand -16.7489 11.0679
rfingers 7.12502
rthumb 9.47767 -18.6989
lclavicle -4.63417e-015 -1.66482e-014
lhumerus -30.2813 2.97137 82.4143
lradius 34.5608
lwrist -1.769
lhand -13.3178 32.4546
lfingers 7.12502
lthumb 12.7868 62.0431
rfemur -28.7015 -6.71241 21.2414
rtibia 47.3922
rfoot -14.0855 -8.91097
rtoes 5.58925
lfemur -13.7547 6.08929 -22.1936
ltibia 26.837
lfoot -17.4768 2.49881
ltoes -0.79943
119
root 2.17824 17.9628 -9.72282 8.52152 -6.81249 -2.19358
lowerback -3.09938 1.66472 -6.72157
upperback 2.44624 2.47496 2.284
thorax 3.90523 1.00803 6.32026
lowerneck -15.1637 1.19892 1.28745
upperneck 40.7303 4.19594 -6.50185
head 17.8783 0.986894 -2.45716
rclavicle -9.41742e-015 -4.37326e-015
rhumerus -26.4544 3.63341 -84.9009
rradius 30.7356
rwrist -7.88408
rhand -16.7459 11.1289
rfingers 7.12502
rthumb 9.48052 -18.6379
lclavicle -9.41742e-015 -4.37326e-015
lhumerus -30.2534 2.97078 82.4071
lradius 34.5798
lwrist -2.16471
lhand -12.9017 31.9697
lfingers 7.12502
lthumb 13.188 61.5325
rfemur -29.203 -7.05698 21.2844
rtibia 47.3394
rfoot -14.1212 -8.77298
rtoes 6.86322
lfemur -13.643 6.12647 -22.2386
ltibia 26.688
lfoot -17.5007 2.47712
ltoes -1.07692
120
root 2.18117 17.96 -9.70026 8.52465 -6.75923 -2.11864
lowerback -3.1234 1.67271 -6.79523
upperback 2.56472 2.49452 2.25457
thorax 4.03893 1.0067 6.33668
lowerneck -15.2041 1.21279 1.36036
upperneck 40.6594 4.20979 -6.55285
head 17.8524 0.997547 -2.48837
rclavicle 2.38542e-015 3.34952e-014
rhumerus -26.2343 3.61707 -84.862
rradius 30.7791
rwrist -7.83086
rhand -16.774 10.9512
rfingers 7.12502
rthumb 9.45341 -18.8168
lclavicle 2.38542e-015 3.34952e-014
lhumerus -30.1725 2.82729 82.4647
lradius 34.6213
lwrist -2.18281
lhand -12.7791 31.9517
lfingers 7.12502
lthumb 13.3062 61.5069
rfemur -29.5887 -7.37705 21.2487
rtibia 47.1986
rfoot -14.2089 -8.64176
rtoes 8.69882
lfemur -13.5037 6.13727 -22.3437
ltibia 26.5247
lfoot -17.4617 2.34533
ltoes -0.948746
121
root 2.18252 17.9684 -9.67948 8.49978 -6.58557 -2.06818
lowerback -2.93066 1.65819 -6.89324
upperback 2.59614 2.46735 2.26201
thorax 3.9632 0.992517 6.39164
lowerneck -15.245 1.22468 1.35229
upperneck 40.6762 4.20293 -6.47902
head 17.8691 1.00345 -2.45417
rclavicle 3.57067e-014 2.48481e-015
rhumerus -26.1713 3.66446 -84.8264
rradius 30.8592
rwrist -7.82691
rhand -16.8574 10.7553
rfingers 7.12502
rthumb 9.37291 -19.0163
lclavicle 3.57067e-014 2.48481e-015
lhumerus -30.162 2.66621 82.5809
lradius 34.6194
lwrist -2.11928
lhand -12.8714 32.1983
lfingers 7.12502
lthumb 13.2172 61.7593
rfemur -29.9053 -7.5925 21.2325
rtibia 46.9457
rfoot -13.9215 -8.64671
rtoes 9.15971
lfemur -13.3423 6.02288 -22.3806
ltibia 26.3459
lfoot -17.39 2.21699
ltoes -0.424045
122
root 2.18172 17.9803 -9.65743 8.5196 -6.40408 -2.12287
lowerback -2.65827 1.63463 -6.9047
upperback 2.52175 2.41461 2.30662
thorax 3.73673 0.977443 6.42918
lowerneck -15.1737 1.2165 1.31767
upperneck 40.736 4.20032 -6.4631
head 17.8834 1.0002 -2.44334
rclavicle 2.41772e-014 -2.98177e-016
rhumerus -26.328 3.71429 -84.8069
rradius 31.0049
rwrist -7.80107
rhand -16.8985 10.6803
rfingers 7.12502
rthumb 9.33326 -19.0931
lclavicle 2.41772e-014 -2.98177e-016
lhumerus -30.3069 2.53071 82.6626
lradius 34.6183
lwrist -2.17017
lhand -12.758 32.4564
lfingers 7.12502
lthumb 13.3265 62.0103
rfemur -30.2711 -7.84822 21.3685
rtibia 46.602
rfoot -13.434 -8.75158
rtoes 8.1419
lfemur -13.1805 5.91889 -22.2928
ltibia 26.1213
lfoot -17.4128 2.2123
ltoes -0.965503
123
root 2.18162 17.9829 -9.62903 8.55068 -6.34435 -2.14819
lowerback -2.61454 1.63023 -6.93794
upperback 2.49136 2.40558 2.33733
thorax 3.67921 0.975055 6.47762
lowerneck -14.9653 1.19377 1.31188
upperneck 40.7419 4.18162 -6.50215
head 17.8311 0.990289 -2.46351
rclavicle 2.88114e-014 1.80397e-014
rhumerus -26.4801 3.82472 -84.794
rradius 31.168
rwrist -7.83692
rhand -17.0561 10.796
rfingers 7.12502
rthumb 9.18123 -18.9841
lclavicle 2.88114e-014 1.80397e-014
lhumerus -30.5062 2.33376 82.7539
lradius 34.6557
lwrist -2.03465
lhand -12.6594 32.6749
lfingers 7.12502
lthumb 13.4215 62.2225
rfemur -30.6252 -8.15492 21.4775
rtibia 46.1904
rfoot -13.0011 -8.83807
rtoes 6.85093
lfemur -12.9801 5.87414 -22.2656
ltibia 25.8811
lfoot -17.4297 2.24495
ltoes -1.47007
124
root 2.18333 17.9815 -9.60075 8.60845 -6.3757 -2.09826
lowerback -2.72736 1.67519 -6.94856
upperback 2.56509 2.47778 2.2701
thorax 3.81125 1.00365 6.42252
lowerneck -14.9428 1.17132 1.40366
upperneck 40.7323 4.10728 -6.48568
head 17.8148 0.977989 -2.48583
rclavicle 1.41261e-014 8.64713e-015
rhumerus -26.4584 3.88957 -84.8513
rradius 31.333
rwrist -7.99201
rhand -17.3637 11.0081
rfingers 7.12502
rthumb 8.88442 -18.7849
lclavicle 1.41261e-014 8.64713e-015
lhumerus -30.4915 2.05472 82.802
lradius 34.6961
lwrist -1.84055
lhand -12.5926 32.7003
lfingers 7.12502
lthumb 13.4859 62.2436
rfemur -31.0031 -8.32074 21.4497
rtibia 45.7178
rfoot -12.8018 -8.83308
rtoes 6.33749
lfemur -12.8599 5.79828 -22.355
ltibia 25.7092
lfoot -17.3533 2.39192
ltoes -1.61605
125
root 2.18348 17.98 -9.57969 8.73047 -6.35991 -2.11269
lowerback -2.75617 1.70754 -6.90232
upperback 2.64764 2.52394 2.232
thorax 3.90998 1.02168 6.36156
lowerneck -15.0885 1.15752 1.42629
upperneck 40.7085 4.06479 -6.45285
head 17.8356 0.9671 -2.4819
rclavicle -7.45443e-015 -2.85753e-014
rhumerus -26.3347 3.96803 -84.8883
rradius 31.5008
rwrist -8.11693
rhand -17.4883 11.0197
rfingers 7.12502
rthumb 8.76411 -18.7784
lclavicle -7.45443e-015 -2.85753e-014
lhumerus -30.3194 1.90396 82.8539
lradius 34.6728
lwrist -1.78016
lhand -12.4116 32.6171
lfingers 7.12502
lthumb 13.6604 62.1488
rfemur -31.457 -8.30249 21.4988
rtibia 45.1861
rfoot -12.5722 -9.01525
rtoes 5.64633
lfemur -12.8713 5.65097 -22.3614
ltibia 25.5922
lfoot -17.2802 2.58225
ltoes -1.8958
126
root 2.18087 17.9823 -9.55587 8.81252 -6.25883 -2.23631
lowerback -2.62529 1.68071 -6.85701
upperback 2.65578 2.47431 2.31423
thorax 3.85035 0.999408 6.41519
lowerneck -15.1114 1.1739 1.33433
upperneck 40.6846 4.11507 -6.43822
head 17.8292 0.974854 -2.44756
rclavicle 2.45748e-014 -2.17669e-014
rhumerus -26.3056 4.21552 -84.8588
rradius 31.6187
rwrist -8.24127
rhand -17.3253 10.8832
rfingers 7.12502
rthumb 8.92146 -18.9082
lclavicle 2.45748e-014 -2.17669e-014
lhumerus -30.3123 1.92128 82.9444
lradius 34.6095
lwrist -1.80934
lhand -12.2415 32.3437
lfingers 7.12502
lthumb 13.8243 61.8643
rfemur -31.8132 -8.29644 21.6918
rtibia 44.5881
rfoot -11.8969 -9.34916
rtoes 3.29616
lfemur -12.7982 5.56127 -22.2069
ltibia 25.4579
lfoot -17.2201 2.5621
ltoes -1.52026
127
root 2.17774 17.9867 -9.52695 8.82599 -6.13249 -2.31417
lowerback -2.47188 1.6558 -6.86599
upperback 2.63819 2.42836 2.38235
thorax 3.7492 0.980198 6.48348
lowerneck -15.0203 1.1637 1.28104
upperneck 40.7195 4.1215 -6.44286
head 17.8249 0.969916 -2.44001
rclavicle -1.26601e-014 -1.46107e-014
rhumerus -26.3411 4.2642 -84.8004
rradius 31.6402
rwrist -8.2376
rhand -17.0411 10.8282
rfingers 7.12502
rthumb 9.19573 -18.9513
lclavicle -1.26601e-014 -1.46107e-014
lhumerus -30.4099 1.88054 83.0367
lradius 34.588
lwrist -1.79634
lhand -12.194 32.3256
lfingers 7.12502
lthumb 13.87 61.8431
rfemur -32.0639 -8.41501 21.8039
rtibia 43.933
rfoot -11.2906 -9.32729
rtoes 2.9108
lfemur -12.6252 5.57182 -22.0995
ltibia 25.2954
lfoot -17.1398 2.47788
ltoes -1.37354
